<svg style="enable-background:new 0 0 512 512"  xml:space="preserve" xmlns="http://www.w3.org/2000/svg"><path d="M198.664 26.001s160.566 18.863 82.084 289.021C268.365 357.742 227.71 486 140.595 486c-87.07-2.704-47.784-93.987-47.784-93.987s21.045-56.492 68.089-76.588c30.885 13.484 71.342 30.415 70.424 29.528.918.887-113.72-62.448-113.72-175.202.002-93.004 22.992-143.75 81.06-143.75z"/><path d="M418.72 155.692c21.477 6.381 9.835 91.887-78.019 186.56-4.156 54.506-35.032 135.348-75.237 128.165-41.394-13.173 17.061-127.194 30.543-157.955 13.472-30.759 75.46-170.824 122.713-156.77z"/></svg>