<svg style="fill-rule:evenodd;clip-rule:evenodd;stroke-linejoin:round;stroke-miterlimit:2" viewBox="0 0 7500 3146" xml:space="preserve" xmlns="http://www.w3.org/2000/svg"><path d="M1136.45 185.802h-60.09v336.07a5076.078 5076.078 0 0 1 163.15 8.245v-59.209a5142.858 5142.858 0 0 0-103.06-5.826v-279.28Zm477.55.034h-66.01l-43.51 100.851-39.09-100.851h-65.02l69.87 180.207-76.27 176.789c21.1 2.058 42.14 4.254 63.16 6.574l44.36-102.791 43.93 113.312c22.88 2.942 45.7 6.012 68.48 9.263l.1-.039-78.28-201.891L1614 185.836ZM870.087 518.935l60.093-.013V382.218h81.46v-59.209h-81.46v-77.428h107.66v-59.742H870.087v333.096ZM645.688 245.577h62.893v276.879a5174.475 5174.475 0 0 1 60.091-1.903V245.577h62.89v-59.741H645.688v59.741Zm-205.44 294.087a5057.306 5057.306 0 0 1 166.918-12.4v-59.216a5162.712 5162.712 0 0 0-106.827 7.3v-89.641c23.297-.232 53.974-.943 81.151-.605v-59.214c-21.712-.053-56.608.303-81.151.617v-80.924h106.827v-59.742H440.248v353.825ZM322.372 402.781l-78.265-216.945h-57.11v383.362a5102.539 5102.539 0 0 1 60.091-8.185V352.542l69.591 199.911a5117.418 5117.418 0 0 1 65.785-7.202V185.836h-60.092v216.945Zm966.678 130.901c20.06 1.535 40.09 3.182 60.1 4.962V185.836h-60.1v347.846Z" style="fill:#ed1c24;fill-rule:nonzero" transform="scale(4.16667)"/></svg>