<svg  xmlns="http://www.w3.org/2000/svg"><defs><style>.cls-2{fill:#fa5c66}.cls-3{fill:#49aaee}.cls-4{fill:#fed049}.cls-5{fill:#35dc86}</style></defs><g data-name="29-Slack" id="_29-Slack"><circle cx="24" cy="24" r="23" style="fill:#f1f2f2" data-name="&lt;Group&gt;" id="_Group_"/><g data-name="&lt;Group&gt;" id="_Group_2"><path class="cls-2" transform="rotate(-20 30.704 27.906)" d="M27.744 24.934h6.001v6.001h-6.001z"/><path class="cls-3" transform="rotate(-20 26.623 16.64)" d="M23.654 13.654h6.001v6.001h-6.001z"/><path class="cls-2" transform="rotate(-20 20.377 31.65)" d="M17.404 28.684h6.001v6.001h-6.001z"/><path class="cls-3" transform="rotate(-20 16.293 20.384)" d="M13.314 17.404h6.001v6.001h-6.001z"/><path class="cls-4" d="m30.5 18.45 2.04 5.64-5.64 2.05-2.04-5.64 5.64-2.05z"/><path class="cls-5" d="m20.16 22.2 2.04 5.64-5.64 2.05-2.04-5.64 5.64-2.05zM25.27 36.3a3 3 0 1 1-5.64 2.05l-1.02-2.82 5.64-2.05ZM17.09 13.74l1.02 2.82-5.64 2.05-1.02-2.82a3 3 0 0 1 5.64-2.05Z"/><path class="cls-2" d="M40.15 24.52a3.012 3.012 0 0 1-1.8 3.85l-3.76 1.36-2.05-5.64 3.76-1.36a3.007 3.007 0 0 1 3.85 1.79ZM26.9 26.14l2.05 5.64-4.7 1.7-2.05-5.64 4.7-1.7zM16.56 29.89l2.05 5.64-2.82 1.02a3 3 0 0 1-2.05-5.64Z"/><path class="cls-3" d="m22.81 14.86 2.05 5.64-4.7 1.7-2.05-5.64 4.7-1.7zM36.05 13.24a3.007 3.007 0 0 1-1.79 3.85l-3.76 1.36-2.05-5.64 3.76-1.36a2.992 2.992 0 0 1 3.84 1.79ZM12.47 18.61l2.05 5.64-2.82 1.02a3 3 0 1 1-2.05-5.64Z"/><path class="cls-4" d="M35.61 32.55a3 3 0 0 1-5.64 2.05l-1.02-2.82 5.64-2.05ZM27.43 9.99l1.02 2.82-5.64 2.05-1.02-2.82a3 3 0 1 1 5.64-2.05Z"/></g></g></svg>