<svg  viewBox="0 0 189 189" fill="none" xmlns="http://www.w3.org/2000/svg">
<path d="M189 94.5C189 146.691 146.691 189 94.5 189C42.3091 189 0 146.691 0 94.5C0 42.3091 42.3091 0 94.5 0C146.691 0 189 42.3091 189 94.5Z" fill="black"/>
<path d="M77.7656 35C84.9475 35 90.7812 40.8268 90.7812 48.0156V140.984C90.7812 148.166 84.9475 154 77.7656 154C71.0486 154 65.517 148.91 64.8197 142.356C63.6111 142.681 62.3328 142.844 61.0312 142.844C52.8151 142.844 46.1562 136.173 46.1562 127.969C46.1562 126.249 46.4514 124.575 46.9906 123.041C39.9808 120.392 35 113.605 35 105.656C35 98.242 39.3486 91.8272 45.638 88.8521C43.6345 86.3188 42.4375 82.9021 42.4375 79.625C42.4375 72.4896 47.4555 66.5396 54.1539 65.0754C53.789 63.7971 53.5938 62.4258 53.5938 61.0312C53.5938 54.0725 58.3816 48.2295 64.8197 46.6048C65.517 40.0807 71.0486 35 77.7656 35ZM124.18 46.6048C130.618 48.2295 135.406 54.0725 135.406 61.0312C135.406 62.4258 135.22 63.7971 134.848 65.0754C141.542 66.5396 146.562 72.4896 146.562 79.625C146.562 82.9021 145.377 86.3188 143.355 88.8521C149.654 91.8272 154 98.242 154 105.656C154 113.605 149.026 120.392 142.007 123.041C142.542 124.575 142.844 126.249 142.844 127.969C142.844 136.173 136.173 142.844 127.969 142.844C126.667 142.844 125.389 142.681 124.18 142.356C123.483 148.91 117.951 154 111.234 154C104.053 154 98.2188 148.166 98.2188 140.984V48.0156C98.2188 40.8268 104.053 35 111.234 35C117.951 35 123.483 40.0807 124.18 46.6048Z" fill="white"/>
</svg>
